<?xml version="1.0" encoding="utf-8"?>
<svg version="1.1" xmlns="http://www.w3.org/2000/svg" xmlns:xlink="http://www.w3.org/1999/xlink" x="0px" y="0px"
	 viewBox="0 0 4000 4000" style="enable-background:new 0 0 4000 4000;" xml:space="preserve">
<style type="text/css">
	.st0{fill:#006BA3;stroke:#003E76;stroke-miterlimit:10;}
	.st3{fill:#6EC31C;}
	.st4{fill:#003E76;stroke:#000000;stroke-miterlimit:10;}
	.st6{fill:#06568F;}
	.st7{fill:#56AF12;}
	.st8{font-family:'Arial', sans-serif;}
	.st9{font-size:522.5273px;}
</style>
<!-- Main logo circle -->
<path class="st0" d="M2694.2,1542.8c-162.6-190.1-267.8-47.2-508-271.4c-207.6-193,6.5-460.1,72.6-532.7c1.5-1.5,2.2-2.2,2.9-3.6
	c-2.9-0.7-5.8-1.5-9.4-2.2c-50.8-8.7-100.9-9.4-151-5.8c-389,13.8-699.6,331.7-699.6,721.4c0,117.6,28.3,229.3,79.1,327.3
	c42.8,92.2,104.5,170.5,189.4,233c124.8,100.9,284.5,161.1,457.9,161.1c39.9,0,78.4-2.9,116.1-9.4c225-26.9,375.2-136.4,450.7-261.3
	C2771.1,1775.1,2771.1,1632.8,2694.2,1542.8z"/>

<!-- Green accent -->
<path class="st3" d="M2101.4,1457.2c-77-18.1-148.8-45.7-213.4-92.9c-31.2-22.5-65.3-21.1-98,0.7c-18.9,12.4-37.1,29.1-58.1,35.6
	s-50.1,10.1-68.2,0.7c-72.6-38.4-77.7-147.3-10.2-195.2c19.6-13,42.1-23.2,64.6-31.9c39.2-15.3,79.8-26.9,118.3-44.3
	c47.2-21,67.5-63.1,50.8-110.3c-23.2-65.3-68.2-142.9-94.3-206.8c-23.3,12.3-45.7,24.6-72.6,43.5c-5.1,4.3-18.9,13-25.1,16.5
	c-10.9,8.7-21.8,15.9-39.9,31.9c-22.5,18.9-43.6,40-66.8,63.9l-28.3,34.1c-22.5,30.5-34.9,47.1-53,76.9
	c-47.2,79.1-77.7,164.8-95.1,259.1c76.9,12.4,158.2,54.5,215.5,103.1c21,18.2,35.6,36.3,31.2,67.5c-10.8,71.2,18.9,122,80.6,159.7
	c29.1,18.1,57.4,45.7,72.6,76.2c22.4,44.3,33.3,95.1,49.3,143c15.2,44.2,26.1,91.4,68.9,119c12.3,8,32.6,12.4,45.7,8
	c8-2.9,10.9-26.1,11.6-40.6c1.4-23.9-5.1-48.6-1.5-71.8c12.3-77.7,42.1-148.8,85.6-213.4c21.8-33.4,53-61.7,69.7-96.5
	C2174.7,1524,2179.8,1476.1,2101.4,1457.2z"/>

<!-- Top accent -->
<path class="st3" d="M2861.1,1434.3c-10.2-141.3-49.7-272.5-139.1-384.8c-57-71.6-118.7-139-200.4-184
	c-70.3-62.3-183.8-49.1-231.6,30.2c-46.5,77.3-48.7,161.5-16.1,243.4c16.3,40.9,40.9,81.7,88.6,97.7
	c46.2,35.7,102.1,36.6,156.4,43.3c18.9,4.7,37.7,9.4,56.6,14.1c37.8,20.8,75.7,41.6,113.5,62.4c8.2,5.8,16.4,11.6,24.6,17.4
	c33.9,33.7,67.8,67.3,101.8,101c0.4,0.8,0.8,1.6,1.3,2.3c14.7,24.3,29.4,48.6,44.1,72.8C2866.2,1508.7,2863.8,1471.5,2861.1,1434.3z"/>

<!-- UDAAN text (simplified for favicon) -->
<text transform="matrix(1 0 0 1 1230 2709)" class="st7 st8 st9">UDAAN</text>
</svg>