<?xml version="1.0" encoding="utf-8"?>
<!-- Generator: Adobe Illustrator 24.3.0, SVG Export Plug-In . SVG Version: 6.00 Build 0)  -->
<svg version="1.1" id="Layer_1" xmlns="http://www.w3.org/2000/svg" xmlns:xlink="http://www.w3.org/1999/xlink" x="0px" y="0px"
	 viewBox="0 0 4000 4000" style="enable-background:new 0 0 4000 4000;" xml:space="preserve">
<style type="text/css">
	.st0{fill:#006BA3;stroke:#003E76;stroke-miterlimit:10;}
	.st1{display:none;fill:#FFFFFF;}
	.st2{display:none;fill:#006BA3;stroke:#006BA3;stroke-miterlimit:10;}
	.st3{fill:#6EC31C;}
	.st4{fill:#003E76;stroke:#000000;stroke-miterlimit:10;}
	.st5{fill:#FFFFFF;}
	.st6{fill:#06568F;}
	.st7{fill:#56AF12;}
	.st8{font-family:'TimesNewRomanPSMT';}
	.st9{font-size:522.5273px;}
</style>
<path class="st0" d="M2694.2,1542.8c-162.6-190.1-267.8-47.2-508-271.4c-207.6-193,6.5-460.1,72.6-532.7c1.5-1.5,2.2-2.2,2.9-3.6
	c-2.9-0.7-5.8-1.5-9.4-2.2c-50.8-8.7-100.9-9.4-151-5.8c-389,13.8-699.6,331.7-699.6,721.4c0,117.6,28.3,229.3,79.1,327.3
	c42.8,92.2,104.5,170.5,189.4,233c124.8,100.9,284.5,161.1,457.9,161.1c39.9,0,78.4-2.9,116.1-9.4c225-26.9,375.2-136.4,450.7-261.3
	C2771.1,1775.1,2771.1,1632.8,2694.2,1542.8z"/>
<g>
	<path class="st1" d="M4611.6,6322.5c-1683.7,0-3367.4,0-5051.1,0c0-2476.9,0-4954.6,0-7431.5c1683.7,0,3367.4,0,5051.1,0
		C4611.6,1367.9,4611.6,3844.8,4611.6,6322.5z M2361.1,1234.4c46.4,36.3,103.1,37.7,157.5,44.3c18.9,4.4,37.7,9.4,56.6,13.8
		c37.7,21,75.5,41.4,113.2,62.4c8,5.8,16.7,11.6,24.7,17.4c34.1,33.4,67.5,67.5,101.6,100.9c0.7,0.7,0.7,1.5,1.5,2.2
		c14.5,23.9,29,48.6,44.3,72.6c5.1-41.4,2.9-79.1,0-116.1c-10.2-141.5-49.3-272.1-138.6-384.6c-57.3-71.8-119-139.3-201-184.3
		l1.5,0.7c-70.4-63.1-184.3-50.1-232.2,29c-46.4,76.9-48.6,161.1-16,243.1c16,40.6,40.6,82,88.5,98L2361.1,1234.4z M1578,1003.6
		l1.5-1.5c-15.2,17.4-32.7,32.7-44.3,51.5c-104.5,169.1-154.6,347.6-111,548.7c40.6,189.4,130.6,341.8,299,442
		c103.1,61.7,215.5,96.5,334.6,111.8c35.6,4.4,71.1,7.3,106.7,10.9c0,10.2,0,16,0,21.8c-3.6,59.5,5.1,69.7,64.6,61
		c198.9-29,368.7-117.6,499.3-269.2c42.1-48.6,74-112.5,90-174.9c54.4-207.6-91.4-415.8-309.2-453.6c-27.6-4.4-55.2-9.4-82-16
		c-150.2-37.7-246.7-160.4-238-304.1c4.4-79.8,44.3-143.7,97.2-201c42.8-45.7,29.8-86.4-32.7-96.5c-110.3-18.9-219.2-2.2-325.9,26.9
		c-71.8,19.6-134.3,57.3-190.9,105.2c-3.6,0.7-8,1.5-11.6,2.2C1675.3,912.9,1626.7,957.9,1578,1003.6z M1236.2,1615.4
		c1.5,0,2.9,0,4.4,0.7c0,10.9,0,21.8,0,32.7c1.5,167.6,37,322.2,163.3,443.4c172.7,165.5,391.2,178.5,612.5,180
		c27.6,0,39.2-29.8,33.4-65.3c-5.1-31.2-24.7-34.1-50.8-29.8c-106,15.2-209.7,6.5-312.8-21c-172-45.7-300.5-144.4-342.5-323
		c-20.3-85.6-26.1-177.1-22.5-265.6c8.7-243.1,24.7-485.5,37.7-727.9c0.7-7.3,2.9-16-0.7-21.8c-5.1-9.4-13.1-23.2-21-23.2
		c-8.7-0.7-20.3,9.4-26.9,17.4c-5.1,7.3-5.8,18.1-6.5,27.6C1281.2,1098,1258.7,1356.3,1236.2,1615.4z M2350.9,632
		c30.5,37.7,53,72.6,82.7,100.2c17.4,16,45,28.3,68.9,29.8c57.3,4.4,116.1,0.7,174.2,1.5c16,0,31.9,5.8,53,10.2
		c-22.5,36.3-42.1,66.8-59.5,98c-5.1,8.7-4.4,21-6.5,31.9c11.6-1.5,25.4,0.7,33.4-4.4c34.8-23.9,71.1-47.2,100.2-76.9
		c33.4-34.1,68.2-48.6,115.4-45.7c33.4,2.2,67.5-2.2,100.9-8c24.7-4.4,46.4-20.3,42.1-50.1c-4.4-28.3-25.4-42.8-53.7-45.7
		c-8-0.7-17.4-1.5-25.4,0.7c-79.8,21-143.7-7.3-199.6-62.4c-12.3-11.6-27.6-20.3-38.5-33.4c-35.6-40.6-78.4-38.5-133.5-27.6
		c42.1,42.1,79.8,79.8,121.9,122.6c-60.2,3.6-115.4,5.1-169.8,10.2c-42.8,4.4-78.4-5.1-108.1-37
		C2422.1,618.2,2390.9,621.1,2350.9,632z M1868.3,2980.5c18.1-10.2,30.5-15.2,40.6-22.5c26.9-18.9,38.5-45,33.4-78.4
		c-5.1-32.7-25.4-55.2-55.9-58.8c-42.1-4.4-85.6-1.5-129.9-1.5c0,106.7,0,208.3,0,310.6c34.1,10.9,46.4,0.7,44.3-33.4
		c-2.2-34.8-0.7-70.4-0.7-116.8c18.9,20.3,30.5,31.2,40.6,44.3c22.5,29.8,42.8,61,66,90.7c6.5,8.7,17.4,18.1,27.6,19.6
		c59.5,9.4,65.3,5.8,87.8-50.8c5.1-12.3,11.6-23.9,15.2-37c7.3-26.1,22.5-34.1,50.8-32.7c80.6,5.1,80.6,3.6,108.1,79.1
		c0.7,2.2,1.5,4.4,2.2,7.3c7.3,33.4,26.9,42.1,61,29c-38.5-100.2-76.9-200.3-116.1-299.7c-2.2-5.8-14.5-13.1-18.1-11.6
		c-7.3,3.6-13.8,11.6-17.4,19.6c-37.7,84.9-74,170.5-111,255.5c-5.1,11.6-11.6,21.8-20.3,39.2
		C1938,3078.5,1903.9,3031.3,1868.3,2980.5z M1946.7,2710.5c2.9,2.2,6.5,4.4,9.4,6.5c6.5-9.4,15.2-18.1,20.3-28.3
		c31.9-70.4,62.4-140.8,93.6-211.2c3.6-8.7,12.3-15.2,22.5-26.9c17.4,47.2,31.9,85.6,47.9,127.7c-37.7,2.2-67.5,3.6-97.2,5.8
		c3.6,9.4,8,13.1,11.6,12.3c81.3-18.9,119,21.8,135,95.8c1.5,8,10.2,17.4,17.4,20.3c54.4,20.3,87.8,2.9,107.4-52.3
		c1.5-3.6,2.2-7.3,2.9-10.2c10.2-39.2,29-58.1,76.2-55.2c79.1,4.4,79.1,0,110.3,74c21,50.8,23.9,52.3,79.1,39.9
		c-50.1-111-100.2-222.8-151-334.6c-3.6,0.7-8,1.5-11.6,2.9c-48.6,110.3-98,219.9-146.6,330.2c-5.1,0-10.9,0-16,0
		c-49.3-109.6-98-219.9-147.3-330.2c-3.6,0-8,0-11.6,0C2049,2488.5,1998.2,2599.5,1946.7,2710.5z M1621.6,2715.6
		c52.3,0,99.4-0.7,146.6,0c51.5,0.7,94.3-20.3,130.6-54.4c88.5-83.5,56.6-242.4-58.8-268.5c-72.6-16.7-149.5-14.5-224.3-21
		C1653.5,2415.9,1661.5,2657.6,1621.6,2715.6z M2904.7,2714.9c3.6-1.5,8-2.9,11.6-4.4c0-110.3,0-220.6,0-331.7c-9.4,0-22.5,0-32.7,0
		c26.9,77.7,13.1,154.6,8,232.2c-14.5-6.5-25.4-13.8-34.1-23.2c-54.4-57.3-109.6-112.5-160.4-172c-32.7-38.5-69.7-45.7-108.9-38.5
		c13.8,23.2,39.9,46.4,41.4,71.1c4.4,82,0,164,0.7,246.7c0,7.3,9.4,14.5,14.5,21.8c2.2-2.2,3.6-4.4,5.8-6.5c0-82,0-163.3,0-247.5
		C2737,2549.4,2821.2,2632.2,2904.7,2714.9z M2786.4,3132.2c1.5-9.4,2.9-18.1,2.9-26.1c0-95.1,0-190.1,0-286.7
		c-17.4,0-31.2,0-47.2,0c0,19.6,0,36.3,0,53c0,76.2,0,76.9-76.2,76.2c-31.2,0-75.5,10.2-90.7-5.8c-17.4-18.1-10.2-61-10.2-92.9
		c0-30.5-11.6-39.2-47.9-26.9c0,91.4,0,185.1,0,279.4c0,18.9,0.7,32.7,26.1,31.9c25.4-0.7,25.4-16,25.4-34.1
		c-0.7-34.8-0.7-70.4-2.9-105.2c-0.7-21.8,7.3-30.5,29-29.8c36.3,1.5,72.6,2.2,108.9,0c32.7-2.2,42.8,10.2,40.6,41.4
		c-2.2,42.1-0.7,83.5-0.7,125.6C2761.7,3132.2,2773.3,3132.2,2786.4,3132.2z M1263.1,2379.6c6.5,28.3,16.7,56.6,18.9,85.6
		c2.9,44.3-0.7,89.3,1.5,134.3c2.9,74,51.5,120.5,125.6,122.6c13.1,0,26.9,0,39.9-0.7c62.4-3.6,111-51.5,113.2-114.7
		c1.5-54.4-0.7-108.9,0.7-163.3c0.7-21.8,5.8-43.5,8.7-66.8c-9.4,0.7-20.3,1.5-27.6,2.2c0,80.6,2.9,157.5-0.7,233.7
		c-2.9,58.1-53,98-108.1,95.1c-54.4-2.9-91.4-44.3-92.2-105.2c-0.7-73.3,0-146.6,0-222.8C1314.6,2379.6,1284.8,2379.6,1263.1,2379.6
		z M1438,3131.5c2.9,2.2,6.5,4.4,9.4,6.5c7.3-8,16.7-15.2,21-24.7c10.9-23.9,18.1-50.1,30.5-73.3c5.1-10.2,19.6-21,30.5-21.8
		c96.5-5.8,97.2-5.8,129.9,86.4c10.2,29.8,26.9,36.3,54.4,25.4c0-5.1,1.5-8.7,0.7-11.6c-37.7-96.5-75.5-193-114.7-288.8
		c-2.9-7.3-13.8-16.7-19.6-15.2c-7.3,1.5-13.8,11.6-17.4,19.6c-26.1,61-50.8,122.6-76.2,183.6
		C1470.6,3054.5,1454.7,3093,1438,3131.5z M1260.9,3075.6c-16,24.7-9.4,42.8,10.2,50.1c23.9,8.7,51.5,14.5,76.9,13.8
		c45-2.2,67.5-22.5,78.4-62.4c10.2-39.2-1.5-74.8-34.1-99.4c-17.4-13.1-37-22.5-54.4-36.3c-15.2-11.6-31.9-23.2-41.4-39.2
		c-14.5-23.2-16-50.8,8-68.9c24.7-18.1,50.1-13.1,72.6,8c8,7.3,13.8,16,21,23.9c3.6-0.7,7.3-2.2,11.6-2.9c-2.2-10.9,0-25.4-6.5-31.2
		c-41.4-41.4-125.6-21.8-145.9,32.7c-16,42.8,2.2,82,49.3,111.8c22.5,14.5,46.4,26.9,65.3,45c26.9,26.9,22.5,72.6-5.1,93.6
		c-26.1,20.3-66.8,11.6-88.5-18.1C1273.2,3090.1,1268.1,3084.3,1260.9,3075.6z M2247.9,2820.1c0,3.6,0,7.3,0,11.6
		c19.6,0,39.9,1.5,59.5,0c30.5-2.9,40.6,8.7,39.9,39.2c-2.2,76.2-0.7,152.4-3.6,228.6c-1.5,36.3,13.8,41.4,45,31.2
		c0.7-12.3,1.5-23.9,1.5-36.3c0-72.6,1.5-145.1-0.7-217.7c-1.5-34.1,7.3-50.1,43.5-44.3c16.7,2.9,34.1,0.7,50.8,0.7
		c0-4.4,0-8,0-12.3C2405.4,2820.1,2327,2820.1,2247.9,2820.1z M2858.2,2819.4c0,99.4-0.7,195.9,0.7,292.5c0,7.3,13.8,21,20.3,20.3
		c9.4-0.7,25.4-11.6,26.1-18.1c1.5-97.2,1.5-194.5,1.5-293.9C2889.4,2819.4,2877.1,2819.4,2858.2,2819.4z"/>
	<path class="st2" d="M1735.5,865.7c56.6-47.9,119-85.6,190.9-105.2c107.4-29,215.5-45,325.9-26.9c62.4,10.2,75.5,50.8,32.7,97.2
		c-53,57.3-92.9,121.2-97.2,201c-8.7,143.7,87.8,266.3,238,304.1c26.9,6.5,54.4,10.9,82,16c217.7,37.7,363.6,246,309.2,453.6
		c-16.7,62.4-47.9,126.3-90,174.9c-130.6,152.4-299.7,240.9-499.3,269.2c-59.5,8.7-68.2-1.5-64.6-61c0.7-5.8,0-11.6,0-21.8
		c-35.6-3.6-71.1-5.8-106.7-10.9c-119-15.2-231.5-50.1-334.6-111.8c-168.4-100.9-258.4-252.6-299-442
		c-43.5-201.8,6.5-379.6,111-548.7c11.6-18.9,29.8-34.8,44.3-51.5c-18.1,29.8-37,58.8-54.4,88.5c-47.9,79.1-77.7,164.7-95.1,259.1
		c77.7,13.1,142.2,44.3,199.6,92.9c21,18.1,35.6,37,31.2,67.5c-10.2,71.1,19.6,121.9,80.6,159.7c29,18.1,57.3,45.7,72.6,76.2
		c22.5,44.3,33.4,95.1,49.3,143c15.2,44.3,26.1,92.2,68.9,119c12.3,8,32.7,13.1,45.7,8c8-2.9,10.9-26.1,11.6-40.6
		c0.7-23.9-5.1-48.6-1.5-71.8c12.3-76.9,41.4-148.8,85.6-213.4c22.5-32.7,53-61,69.7-96.5c33.4-68.9,38.5-116.8-39.9-135.7
		c-76.9-18.9-148.8-45.7-213.4-92.9c-31.2-23.2-65.3-21-98,0.7c-18.9,12.3-37,29.8-58.1,35.6c-21,6.5-50.1,10.2-68.2,0.7
		c-72.6-38.5-77.7-147.3-10.2-195.2c19.6-13.8,42.1-23.2,64.6-31.9c39.2-16,79.8-27.6,118.3-44.3c46.4-21,67.5-63.1,50.8-110.3
		c-22.5-65.3-50.8-128.5-76.9-193C1787,839.6,1760.9,852.7,1735.5,865.7z"/>
	<path class="st3" d="M2101.4,1457.2c-77-18.1-148.8-45.7-213.4-92.9c-31.2-22.5-65.3-21.1-98,0.7c-18.9,12.4-37.1,29.1-58.1,35.6
		s-50.1,10.1-68.2,0.7c-72.6-38.4-77.7-147.3-10.2-195.2c19.6-13,42.1-23.2,64.6-31.9c39.2-15.3,79.8-26.9,118.3-44.3
		c47.2-21,67.5-63.1,50.8-110.3c-23.2-65.3-68.2-142.9-94.3-206.8c-23.3,12.3-45.7,24.6-72.6,43.5c-5.1,4.3-18.9,13-25.1,16.5
		c-10.9,8.7-21.8,15.9-39.9,31.9c-22.5,18.9-43.6,40-66.8,63.9l-28.3,34.1c-22.5,30.5-34.9,47.1-53,76.9
		c-47.2,79.1-77.7,164.8-95.1,259.1c76.9,12.4,158.2,54.5,215.5,103.1c21,18.2,35.6,36.3,31.2,67.5c-10.8,71.2,18.9,122,80.6,159.7
		c29.1,18.1,57.4,45.7,72.6,76.2c22.4,44.3,33.3,95.1,49.3,143c15.2,44.2,26.1,91.4,68.9,119c12.3,8,32.6,12.4,45.7,8
		c8-2.9,10.9-26.1,11.6-40.6c1.4-23.9-5.1-48.6-1.5-71.8c12.3-77.7,42.1-148.8,85.6-213.4c21.8-33.4,53-61.7,69.7-96.5
		C2174.7,1524,2179.8,1476.1,2101.4,1457.2z"/>
	<path class="st4" d="M1304.4,838.9c0.7-9.4,1.5-21,6.5-27.6c6.5-8.7,18.1-18.9,26.9-17.4c8,0.7,16,13.8,21,23.2
		c2.9,5.8,0.7,14.5,0.7,21.8c-13.1,242.4-29.8,485.5-37.7,727.9c-2.9,88.5,2.2,180,22.5,265.6c42.1,179.3,170.5,277.2,342.5,323
		c102.3,27.6,206.8,36.3,312.8,21c26.1-3.6,45.7-0.7,50.8,29.8c5.8,36.3-6.5,66-33.4,65.3c-221.3-1.5-439.8-14.5-612.5-180
		c-126.3-120.5-161.8-275.8-163.3-443.4c0-10.9,0-21.8,0-32.7C1239.1,1616.1,1281.9,1098,1304.4,838.9z"/>
	<path class="st4" d="M2350.9,632c39.9-10.2,71.1-13.8,97.2,13.8c29.8,31.9,65.3,41.4,108.1,37c54.4-5.8,110.3-6.5,169.8-10.2
		c-42.8-42.8-79.8-80.6-121.9-122.6c54.4-11.6,98-13.1,133.5,27.6c10.9,12.3,26.1,21,38.5,33.4c55.9,55.2,119.7,83.5,199.6,62.4
		c8-2.2,16.7-1.5,25.4-0.7c28.3,2.9,48.6,17.4,53.7,45.7c4.4,29.8-17.4,45.7-42.1,50.1c-32.7,6.5-67.5,10.2-100.9,8
		c-47.2-2.9-82,11.6-115.4,45.7c-29,29.8-65.3,53-100.2,76.9c-8,5.8-22.5,3.6-33.4,4.4c2.2-10.9,1.5-23.2,6.5-31.9
		c17.4-31.2,37-61,59.5-98c-21-4.4-37-9.4-53-10.2c-58.1-0.7-116.1,2.9-174.2-1.5c-23.9-1.5-51.5-13.1-68.9-29.8
		C2403.9,704.6,2381.4,669,2350.9,632z"/>
	<path d="M1868.3,2980.5c36.3,50.8,70.4,98,108.9,152.4c8.7-17.4,15.2-28.3,20.3-39.2c37-84.9,74-170.5,111-255.5
		c3.6-8,10.2-16,17.4-19.6c3.6-1.5,16,5.8,18.1,11.6c39.2,99.4,77.7,199.6,116.1,299.7c-34.1,13.1-53.7,4.4-61-29
		c-0.7-2.2-1.5-4.4-2.2-7.3c-27.6-76.2-27.6-74.8-108.1-79.1c-28.3-1.5-42.8,6.5-50.8,32.7c-3.6,13.1-10.2,24.7-15.2,37
		c-22.5,56.6-28.3,60.2-87.8,50.8c-10.2-1.5-21-10.9-27.6-19.6c-22.5-29.8-43.5-61-66-90.7c-9.4-13.1-21.8-23.9-40.6-44.3
		c0,46.4-1.5,82,0.7,116.8c2.2,34.1-10.2,44.3-44.3,33.4c0-101.6,0-203.9,0-310.6c44.3,0,87.1-3.6,129.9,1.5
		c30.5,3.6,50.8,25.4,55.9,58.8c5.1,33.4-6.5,59.5-33.4,78.4C1898.1,2965.3,1885.7,2970.3,1868.3,2980.5z M1797.9,2833.9
		c0,27.6-1.5,56.6,0.7,84.2c0.7,14.5,5.8,38.5,12.3,39.9c18.1,3.6,41.4,2.9,57.3-5.8c29-14.5,37.7-50.1,26.1-81.3
		C1881.4,2836.1,1853.8,2825.2,1797.9,2833.9z M2119.4,2884c-4.4,0-8,0-12.3,0c-14.5,36.3-29,73.3-44.3,111c35.6,0,64.6,0,98.7,0
		C2145.6,2954.4,2132.5,2918.8,2119.4,2884z"/>
	<path d="M1946.7,2710.5c51.5-111,102.3-222.1,153.9-333.1c3.6,0,8,0,11.6,0c49.3,109.6,98,219.9,147.3,330.2c5.1,0,10.9,0,16,0
		c48.6-110.3,98-219.9,146.6-330.2c3.6-0.7,8-1.5,11.6-2.9c50.1,111.8,100.2,223.5,151,334.6c-55.2,12.3-58.1,10.9-79.1-39.9
		c-31.2-74-31.2-69.7-110.3-74c-46.4-2.9-66,15.2-76.2,55.2c-0.7,3.6-2.2,7.3-2.9,10.2c-19.6,55.2-53.7,72.6-107.4,52.3
		c-8-2.9-16-12.3-17.4-20.3c-16-73.3-53.7-114.7-135-95.8c-3.6,0.7-8-2.9-11.6-12.3c29.8-1.5,60.2-3.6,97.2-5.8
		c-16-42.1-30.5-80.6-47.9-127.7c-10.2,11.6-18.9,18.1-22.5,26.9c-31.9,70.4-62.4,140.8-93.6,211.2c-4.4,10.2-13.1,18.9-20.3,28.3
		C1953.2,2714.9,1950.3,2712.7,1946.7,2710.5z M2350.2,2579.2c42.8,0,76.9,0,117.6,0c-18.9-47.2-34.8-88.5-51.5-129.2
		c-3.6,0-7.3,0-11.6,0.7C2388,2491.4,2369.8,2532.7,2350.2,2579.2z"/>
	<path d="M1621.6,2715.6c39.9-58.1,31.9-299-5.8-344c74.8,6.5,151.7,4.4,224.3,21c114.7,26.1,147.3,185.1,58.8,268.5
		c-36.3,34.1-79.1,55.2-130.6,54.4C1721,2714.9,1673.8,2715.6,1621.6,2715.6z M1707.2,2548c-0.7,0-0.7,0-1.5,0
		c0,40.6-1.5,82,0.7,122.6c0.7,10.9,13.1,28.3,21.8,29c73.3,5.8,141.5-14.5,154.6-103.8c5.1-34.1,2.9-70.4-4.4-103.8
		c-14.5-70.4-63.9-105.2-136.4-102.3c-23.2,0.7-35.6,10.2-35.6,34.8C1707.2,2466,1707.2,2507.3,1707.2,2548z"/>
	<path d="M2904.7,2714.9c-83.5-82.7-167.6-165.5-254.7-251.8c0,83.5,0,165.5,0,247.5c-2.2,2.2-3.6,4.4-5.8,6.5
		c-5.1-7.3-14.5-14.5-14.5-21.8c0-82,4.4-164.7-0.7-246.7c-1.5-24.7-27.6-47.9-41.4-71.1c39.2-7.3,76.2,0.7,108.9,38.5
		c50.8,59.5,106.7,115.4,160.4,172c8.7,9.4,19.6,16.7,34.1,23.2c4.4-77.7,18.9-154.6-8-232.2c10.2,0,23.2,0,32.7,0
		c0,111,0,221.3,0,331.7C2912.7,2712,2909,2713.4,2904.7,2714.9z"/>
	<path d="M2786.4,3132.2c-13.8,0-25.4,0-41.4,0c0-42.1-1.5-83.5,0.7-125.6c1.5-31.2-8.7-43.5-40.6-41.4c-36.3,2.2-72.6,1.5-108.9,0
		c-22.5-0.7-30.5,8-29,29.8c1.5,34.8,1.5,70.4,2.9,105.2c0.7,18.1,0.7,33.4-25.4,34.1c-25.4,0.7-26.1-13.1-26.1-31.9
		c0-93.6,0-188,0-279.4c37-12.3,48.6-3.6,47.9,26.9c0,31.9-7.3,74.8,10.2,92.9c15.2,16,58.8,5.8,90.7,5.8c76.2,0.7,76.2,0,76.2-76.2
		c0-16.7,0-33.4,0-53c16.7,0,29.8,0,47.2,0c0,96.5,0,191.6,0,286.7C2789.3,3114.8,2787.8,3122.7,2786.4,3132.2z"/>
	<path d="M1263.1,2379.6c21,0,50.8,0,79.8,0c0,75.5-0.7,149.5,0,222.8c0.7,61,37.7,102.3,92.2,105.2c55.2,2.9,105.2-36.3,108.1-95.1
		c4.4-76.2,0.7-153.1,0.7-233.7c7.3-0.7,18.1-1.5,27.6-2.2c-3.6,23.2-8.7,45-8.7,66.8c-1.5,54.4,0.7,108.9-0.7,163.3
		c-1.5,63.1-50.1,111-113.2,114.7c-13.1,0.7-26.9,0.7-39.9,0.7c-74-2.2-122.6-47.9-125.6-122.6c-2.2-44.3,2.2-89.3-1.5-134.3
		C1280.5,2436.2,1269.6,2407.9,1263.1,2379.6z"/>
	<path d="M1438,3131.5c16-38.5,32.7-76.2,48.6-114.7c25.4-61,50.8-122.6,76.2-183.6c3.6-8,10.2-18.1,17.4-19.6
		c5.1-1.5,16.7,8,19.6,15.2c38.5,95.8,76.9,192.3,114.7,288.8c1.5,2.9,0,7.3-0.7,11.6c-27.6,10.9-43.5,4.4-54.4-25.4
		c-31.9-92.2-33.4-92.2-129.9-86.4c-10.9,0.7-25.4,11.6-30.5,21.8c-12.3,23.2-19.6,49.3-30.5,73.3c-4.4,9.4-13.8,16.7-21,24.7
		C1444.5,3135.8,1441.6,3133.6,1438,3131.5z M1574.4,2876c-2.9,0-5.8,0-9.4,0.7c-16,39.2-32.7,78.4-49.3,119.7
		c36.3,0,67.5,0,104.5,0C1603.4,2952.9,1588.9,2914.5,1574.4,2876z"/>
	<path d="M1260.9,3075.6c8,9.4,13.1,14.5,17.4,21c22.5,29.8,63.1,38.5,88.5,18.1c27.6-21.8,31.9-66.8,5.1-93.6
		c-18.9-18.1-42.8-31.2-65.3-45c-47.9-30.5-65.3-68.9-49.3-111.8c19.6-54.4,104.5-74,145.9-32.7c6.5,6.5,4.4,21,6.5,31.2
		c-3.6,0.7-7.3,2.2-11.6,2.9c-7.3-8-13.1-16.7-21-23.9c-21.8-21-47.9-26.1-72.6-8c-23.9,18.1-22.5,45.7-8,68.9
		c10.2,16,26.1,27.6,41.4,39.2c17.4,13.1,37,23.2,54.4,36.3c32.7,24.7,45,60.2,34.1,99.4c-10.9,39.9-33.4,61-78.4,62.4
		c-25.4,0.7-52.3-5.1-76.9-13.8C1251.5,3118.4,1244.9,3100.2,1260.9,3075.6z"/>
	<path d="M2247.9,2820.1c78.4,0,157.5,0,235.9,0c0,4.4,0,8,0,12.3c-17.4,0-34.1,2.2-50.8-0.7c-37-5.8-45,10.2-43.5,44.3
		c2.2,72.6,0.7,145.1,0.7,217.7c0,11.6-0.7,23.9-1.5,36.3c-31.9,10.2-46.4,5.1-45-31.2c2.9-76.2,1.5-152.4,3.6-228.6
		c0.7-29.8-9.4-42.1-39.9-39.2c-19.6,2.2-39.2,0-59.5,0C2247.9,2827.4,2247.9,2823.7,2247.9,2820.1z"/>
	<path d="M2858.2,2819.4c18.9,0,31.2,0,47.9,0c0,99.4,0.7,196.7-1.5,293.9c0,6.5-16.7,17.4-26.1,18.1c-6.5,0.7-20.3-13.1-20.3-20.3
		C2857.5,3015.3,2858.2,2919.5,2858.2,2819.4z"/>
	<path class="st5" d="M1797.9,2833.9c55.9-9.4,83.5,2.2,97.2,37.7c11.6,31.2,2.9,66.8-26.1,81.3c-16.7,8-39.2,9.4-57.3,5.8
		c-6.5-1.5-11.6-26.1-12.3-39.9C1796.5,2890.5,1797.9,2861.5,1797.9,2833.9z"/>
	<path class="st5" d="M2119.4,2884c13.1,35.6,26.1,70.4,41.4,111.8c-34.1,0-63.1,0-98.7,0c15.2-37.7,29.8-74.8,44.3-111
		C2110.7,2884,2115.1,2884,2119.4,2884z"/>
	<path class="st5" d="M2350.2,2579.2c19.6-46.4,37.7-87.8,55.2-129.2c3.6,0,7.3,0,11.6-0.7c16,41.4,32.7,82.7,51.5,129.2
		C2427.1,2579.2,2393,2579.2,2350.2,2579.2z"/>
	<path class="st5" d="M1707.2,2548c0-40.6,0.7-82,0-122.6c0-24.7,12.3-34.1,35.6-34.8c71.8-2.9,121.2,31.9,136.4,102.3
		c7.3,33.4,9.4,69.7,4.4,103.8c-13.1,88.5-81.3,108.9-154.6,103.8c-8-0.7-21-18.9-21.8-29c-2.9-40.6-0.7-82-0.7-122.6
		C1706.5,2548,1706.5,2548,1707.2,2548z"/>
	<path class="st5" d="M1574.4,2876c14.5,38.5,29,76.9,45.7,120.5c-37,0-68.2,0-104.5,0c17.4-41.4,33.4-80.6,49.3-119.7
		C1567.9,2876.7,1570.8,2876,1574.4,2876z"/>
</g>
<rect x="1142.6" y="2325.9" class="st5" width="2482.7" height="1004.4"/>
<g>
	<g>
		<path class="st6" d="M1264.5,3085.7c20.3,13.1,50.1,22.5,81.3,22.5c46.4,0,74-24.7,74-60.2c0-32.7-18.9-51.5-66.8-69.7
			c-57.3-20.3-92.9-50.8-92.9-100.2c0-54.4,45.7-95.8,113.9-95.8c35.6,0,62.4,8,77.7,17.4l-13.1,37c-11.6-6.5-34.8-16.7-66.8-16.7
			c-48.6,0-66.8,29-66.8,53c0,32.7,21,48.6,69.7,67.5c59.5,23.2,90,52.3,90,103.8c0,53.7-39.9,101.6-123.4,101.6
			c-34.1,0-71.1-10.2-90-23.2L1264.5,3085.7z"/>
		<path class="st6" d="M1585.3,3030.6l-36.3,110.3h-47.2l119.7-352h54.4l120.5,352h-48.6l-37.7-110.3H1585.3z M1700.7,2995
			l-34.8-101.6c-8-23.2-13.1-44.3-18.1-64.6h-1.5c-5.1,20.3-10.2,42.1-17.4,63.9l-34.8,101.6L1700.7,2995L1700.7,2995z"/>
		<path class="st6" d="M1848,2794c23.2-4.4,56.6-7.3,87.8-7.3c47.9,0,79.8,9.4,102.3,29c17.4,15.2,27.6,39.2,27.6,66.8
			c0,46.4-29.8,76.9-66,90v1.5c26.9,9.4,42.8,34.8,51.5,71.1c11.6,49.3,20.3,82.7,26.9,96.5h-47.9c-5.8-10.2-13.8-39.9-23.2-84.2
			c-10.2-47.9-29.8-66.8-70.4-68.2h-42.8v152.4H1848V2794L1848,2794z M1893,2954.4h46.4c48.6,0,79.8-26.1,79.8-66.8
			c0-45.7-33.4-65.3-81.3-65.3c-21.8,0-37,2.2-45,3.6L1893,2954.4L1893,2954.4z"/>
		<path class="st6" d="M2186.2,3030.6l-36.3,110.3h-47.2l119.7-352h54.4l120.5,352h-48.6l-37.7-110.3H2186.2z M2301.6,2995
			l-34.8-101.6c-8-23.2-13.1-44.3-18.1-64.6h-1.5c-5.1,20.3-10.2,42.1-17.4,63.9l-34.8,101.6L2301.6,2995L2301.6,2995z"/>
		<path class="st6" d="M2515.7,2827.4h-107.4v-38.5h260.5v38.5h-108.1v313.5H2515L2515.7,2827.4L2515.7,2827.4z"/>
		<path class="st6" d="M2753.7,2788.9v148h170.5v-147.3h45.7v352h-45.7v-165.5h-170.5v165.5H2708v-352h45.7V2788.9z"/>
		<path class="st6" d="M3094.8,2788.9v352h-45.7v-352H3094.8z"/>
	</g>
</g>
<path class="st4" d="M2817.6,1805.5c54.4-207.6-91.4-415.8-309.2-453.6c-27.6-5.1-55.2-9.4-82-16c-150.2-37.7-246.7-160.4-238-304.1
	c5.1-79.8,44.3-143.7,97.2-201c40.6-43.5,30.5-82-23.9-95.1c-61.7,67.5-286.7,339.6-76.2,536.3c240.9,224.3,346.2,80.6,508,271.4
	c161.8,190.1-16.7,610.3-530.5,625.6c0,9.4,0,15.2,0,20.3c-3.6,59.5,5.1,69.7,64.6,61c198.9-29,368.7-117.6,499.3-270
	C2769,1931.8,2800.9,1867.2,2817.6,1805.5z"/>
<text transform="matrix(1 0 0 1 1230.1177 2708.8867)" class="st7 st8 st9">UDAAN</text>
<path class="st3" d="M2861.1,1434.3c-10.2-141.3-49.7-272.5-139.1-384.8c-57-71.6-118.7-139-200.4-184
	c-70.3-62.3-183.8-49.1-231.6,30.2c-46.5,77.3-48.7,161.5-16.1,243.4c16.3,40.9,40.9,81.7,88.6,97.7
	c46.2,35.7,102.1,36.6,156.4,43.3c18.9,4.7,37.7,9.4,56.6,14.1c37.8,20.8,75.7,41.6,113.5,62.4c8.2,5.8,16.4,11.6,24.6,17.4
	c33.9,33.7,67.8,67.3,101.8,101c0.4,0.8,0.8,1.6,1.3,2.3c14.7,24.3,29.4,48.6,44.1,72.8C2866.2,1508.7,2863.8,1471.5,2861.1,1434.3z
	 M2400.9,839.9c-46,0.2-77.5,25.3-102,63.6c0,0,0,0,0,0C2323.4,865.2,2354.9,840.1,2400.9,839.9z"/>
</svg>