<?xml version="1.0" encoding="utf-8"?>
<svg version="1.1" xmlns="http://www.w3.org/2000/svg" viewBox="1200 500 1800 1800">
<style type="text/css">
	.st0{fill:#006BA3;}
	.st1{fill:#6EC31C;}
	.st2{fill:#003E76;}
</style>

<!-- Main globe/circle -->
<path class="st0" d="M2694.2,1542.8c-162.6-190.1-267.8-47.2-508-271.4c-207.6-193,6.5-460.1,72.6-532.7c1.5-1.5,2.2-2.2,2.9-3.6
	c-2.9-0.7-5.8-1.5-9.4-2.2c-50.8-8.7-100.9-9.4-151-5.8c-389,13.8-699.6,331.7-699.6,721.4c0,117.6,28.3,229.3,79.1,327.3
	c42.8,92.2,104.5,170.5,189.4,233c124.8,100.9,284.5,161.1,457.9,161.1c39.9,0,78.4-2.9,116.1-9.4c225-26.9,375.2-136.4,450.7-261.3
	C2771.1,1775.1,2771.1,1632.8,2694.2,1542.8z"/>

<!-- Green elements -->
<path class="st1" d="M2101.4,1457.2c-77-18.1-148.8-45.7-213.4-92.9c-31.2-22.5-65.3-21.1-98,0.7c-18.9,12.4-37.1,29.1-58.1,35.6
	s-50.1,10.1-68.2,0.7c-72.6-38.4-77.7-147.3-10.2-195.2c19.6-13,42.1-23.2,64.6-31.9c39.2-15.3,79.8-26.9,118.3-44.3
	c47.2-21,67.5-63.1,50.8-110.3c-23.2-65.3-68.2-142.9-94.3-206.8c-23.3,12.3-45.7,24.6-72.6,43.5c-5.1,4.3-18.9,13-25.1,16.5
	c-10.9,8.7-21.8,15.9-39.9,31.9c-22.5,18.9-43.6,40-66.8,63.9l-28.3,34.1c-22.5,30.5-34.9,47.1-53,76.9
	c-47.2,79.1-77.7,164.8-95.1,259.1c76.9,12.4,158.2,54.5,215.5,103.1c21,18.2,35.6,36.3,31.2,67.5c-10.8,71.2,18.9,122,80.6,159.7
	c29.1,18.1,57.4,45.7,72.6,76.2c22.4,44.3,33.3,95.1,49.3,143c15.2,44.2,26.1,91.4,68.9,119c12.3,8,32.6,12.4,45.7,8
	c8-2.9,10.9-26.1,11.6-40.6c1.4-23.9-5.1-48.6-1.5-71.8c12.3-77.7,42.1-148.8,85.6-213.4c21.8-33.4,53-61.7,69.7-96.5
	C2174.7,1524,2179.8,1476.1,2101.4,1457.2z"/>

<path class="st1" d="M2861.1,1434.3c-10.2-141.3-49.7-272.5-139.1-384.8c-57-71.6-118.7-139-200.4-184
	c-70.3-62.3-183.8-49.1-231.6,30.2c-46.5,77.3-48.7,161.5-16.1,243.4c16.3,40.9,40.9,81.7,88.6,97.7
	c46.2,35.7,102.1,36.6,156.4,43.3c18.9,4.7,37.7,9.4,56.6,14.1c37.8,20.8,75.7,41.6,113.5,62.4c8.2,5.8,16.4,11.6,24.6,17.4
	c33.9,33.7,67.8,67.3,101.8,101c0.4,0.8,0.8,1.6,1.3,2.3c14.7,24.3,29.4,48.6,44.1,72.8C2866.2,1508.7,2863.8,1471.5,2861.1,1434.3z"/>

<!-- Dark blue elements -->
<path class="st2" d="M1304.4,838.9c0.7-9.4,1.5-21,6.5-27.6c6.5-8.7,18.1-18.9,26.9-17.4c8,0.7,16,13.8,21,23.2
	c2.9,5.8,0.7,14.5,0.7,21.8c-13.1,242.4-29.8,485.5-37.7,727.9c-2.9,88.5,2.2,180,22.5,265.6c42.1,179.3,170.5,277.2,342.5,323
	c102.3,27.6,206.8,36.3,312.8,21c26.1-3.6,45.7-0.7,50.8,29.8c5.8,36.3-6.5,66-33.4,65.3c-221.3-1.5-439.8-14.5-612.5-180
	c-126.3-120.5-161.8-275.8-163.3-443.4c0-10.9,0-21.8,0-32.7C1239.1,1616.1,1281.9,1098,1304.4,838.9z"/>

	<path class="st4" d="M2350.9,632c39.9-10.2,71.1-13.8,97.2,13.8c29.8,31.9,65.3,41.4,108.1,37c54.4-5.8,110.3-6.5,169.8-10.2
		c-42.8-42.8-79.8-80.6-121.9-122.6c54.4-11.6,98-13.1,133.5,27.6c10.9,12.3,26.1,21,38.5,33.4c55.9,55.2,119.7,83.5,199.6,62.4
		c8-2.2,16.7-1.5,25.4-0.7c28.3,2.9,48.6,17.4,53.7,45.7c4.4,29.8-17.4,45.7-42.1,50.1c-32.7,6.5-67.5,10.2-100.9,8
		c-47.2-2.9-82,11.6-115.4,45.7c-29,29.8-65.3,53-100.2,76.9c-8,5.8-22.5,3.6-33.4,4.4c2.2-10.9,1.5-23.2,6.5-31.9
		c17.4-31.2,37-61,59.5-98c-21-4.4-37-9.4-53-10.2c-58.1-0.7-116.1,2.9-174.2-1.5c-23.9-1.5-51.5-13.1-68.9-29.8
		C2403.9,704.6,2381.4,669,2350.9,632z"/>

<path class="st2" d="M2817.6,1805.5c54.4-207.6-91.4-415.8-309.2-453.6c-27.6-5.1-55.2-9.4-82-16c-150.2-37.7-246.7-160.4-238-304.1
	c5.1-79.8,44.3-143.7,97.2-201c40.6-43.5,30.5-82-23.9-95.1c-61.7,67.5-286.7,339.6-76.2,536.3c240.9,224.3,346.2,80.6,508,271.4
	c161.8,190.1-16.7,610.3-530.5,625.6c0,9.4,0,15.2,0,20.3c-3.6,59.5,5.1,69.7,64.6,61c198.9-29,368.7-117.6,499.3-270
	C2769,1931.8,2800.9,1867.2,2817.6,1805.5z"/>
</svg>



